<svg id="Layer_1" data-name="Layer 1" xmlns="http://www.w3.org/2000/svg" viewBox="0 0 122.88 111.54"><defs><style>.cls-1{fill:white;}.cls-2{fill:#fec901;fill-rule:evenodd;}.cls-3{fill:white;}</style></defs><title>warning</title><path class="cls-2" d="M9,88.75,52.12,14.16c5.24-8.25,13.54-8.46,18.87,0l42.43,73.69c3.39,6.81,1.71,16-9.33,15.77H17.61C10.35,103.8,5.67,97.43,9,88.75Z"/><path class="cls-3" d="M57.57,83.78A5.53,5.53,0,0,1,61,82.2a5.6,5.6,0,0,1,2.4.36,5.7,5.7,0,0,1,2,1.3,5.56,5.56,0,0,1,1.54,5,6.23,6.23,0,0,1-.42,1.35,5.57,5.57,0,0,1-5.22,3.26,5.72,5.72,0,0,1-2.27-.53A5.51,5.51,0,0,1,56.28,90a5.18,5.18,0,0,1-.36-1.27,5.83,5.83,0,0,1-.06-1.31h0a6.53,6.53,0,0,1,.57-2,4.7,4.7,0,0,1,1.14-1.56Zm8.15-10.24c-.19,4.79-8.31,4.8-8.49,0-.82-8.21-2.92-29.34-2.86-37.05.07-2.38,2-3.79,4.56-4.33a12.83,12.83,0,0,1,5,0c2.61.56,4.65,2,4.65,4.44v.24L65.72,73.54Z"/></svg>
