<svg xmlns="http://www.w3.org/2000/svg" xmlns:xlink="http://www.w3.org/1999/xlink" viewBox="0 0 1024 1024"><defs><style>.cls-1{fill:url(#New_Gradient_Swatch_copy_2);}.cls-2{fill:#fff;}</style><linearGradient id="New_Gradient_Swatch_copy_2" x1="512" y1="96.57" x2="512" y2="1008.23" gradientUnits="userSpaceOnUse"><stop offset="0" stop-color="#fcda78"/><stop offset="0.48" stop-color="#ff7f7c"/><stop offset="1" stop-color="#ff457c"/></linearGradient></defs><g id="Layer_4" data-name="Layer 4"><rect class="cls-1" width="1024" height="1024"/></g><g id="Layer_3" data-name="Layer 3"><path class="cls-2" d="M304.65,442.87h0a172.81,172.81,0,0,1,172.8-172.8H753.93a34.56,34.56,0,0,0,34.56-34.56h0A34.56,34.56,0,0,0,753.93,201H477.45c-133.61,0-241.92,108.31-241.92,241.92h0c0,133.61,108.31,241.92,241.92,241.92h69.12A103.68,103.68,0,0,0,650.25,581.11h0A103.68,103.68,0,0,0,546.57,477.43H477.45a34.56,34.56,0,0,1-34.56-34.56h0a34.56,34.56,0,0,1,34.56-34.56h69.11A172.81,172.81,0,0,1,719.37,581.12h0A172.81,172.81,0,0,1,546.56,753.93H270.09a34.56,34.56,0,0,0-34.56,34.56h0a34.56,34.56,0,0,0,34.56,34.56H546.58c133.6,0,241.91-108.31,241.91-241.92h0c0-133.61-108.31-241.92-241.92-241.92H477.45A103.68,103.68,0,0,0,373.77,442.87h0A103.68,103.68,0,0,0,477.45,546.55h69.12a34.56,34.56,0,0,1,34.56,34.56h0a34.56,34.56,0,0,1-34.56,34.56H477.45A172.8,172.8,0,0,1,304.65,442.87Z"/></g></svg>